<?xml version="1.0" encoding="UTF-8"?>
<!DOCTYPE svg PUBLIC "-//W3C//DTD SVG 1.1//EN" "http://www.w3.org/Graphics/SVG/1.1/DTD/svg11.dtd">
<svg xmlns="http://www.w3.org/2000/svg" version="1.1" width="31px" height="24px" style="shape-rendering:geometricPrecision; text-rendering:geometricPrecision; image-rendering:optimizeQuality; fill-rule:evenodd; clip-rule:evenodd" xmlns:xlink="http://www.w3.org/1999/xlink">
<g><path style="opacity:0.906" fill="#4ebe8a" d="M -0.5,-0.5 C 7.16667,-0.5 14.8333,-0.5 22.5,-0.5C 25.1666,1.17341 27.1666,3.50674 28.5,6.5C 27.6667,6.83333 26.8333,7.16667 26,7.5C 23.5177,6.36531 21.0177,5.19864 18.5,4C 12.0865,3.79317 5.75314,3.29317 -0.5,2.5C -0.5,1.5 -0.5,0.5 -0.5,-0.5 Z"/></g>
<g><path style="opacity:0.788" fill="#4fbe8b" d="M 22.5,23.5 C 19.5,23.5 16.5,23.5 13.5,23.5C 11.8968,22.4036 10.3968,21.0703 9,19.5C 7.29832,14.763 5.13165,10.4296 2.5,6.5C 5.89838,6.17964 9.23171,6.51298 12.5,7.5C 10.038,15.1086 12.7047,18.6086 20.5,18C 24.5537,16.0588 24.2203,15.2254 19.5,15.5C 19.5,13.8333 19.5,12.1667 19.5,10.5C 22.8333,10.5 26.1667,10.5 29.5,10.5C 29.4993,16.1726 27.166,20.5059 22.5,23.5 Z"/></g>
</svg>
